<svg width="16" height="16" viewBox="0 0 16 16" fill="none" xmlns="http://www.w3.org/2000/svg">
<path fill-rule="evenodd" clip-rule="evenodd" d="M8.00003 0.666672C10.4851 0.666672 12.5733 2.36637 13.1653 4.66667H14V8.00001H10.6667V7.99955C10.0584 8.80928 9.09 9.33334 8 9.33334C6.91 9.33334 5.94165 8.80928 5.33333 7.99955V8.00001H2V4.66667H2.83472C3.42677 2.36637 5.51491 0.666672 8.00003 0.666672ZM4.22763 4.66667H4.94435C5.45903 3.48974 6.63398 2.66667 8 2.66667C9.36602 2.66667 10.541 3.48974 11.0557 4.66667H11.7724C11.2233 3.11308 9.74165 2.00001 8.00003 2.00001C6.2584 2.00001 4.77675 3.11308 4.22763 4.66667ZM8 4.00001C9.1 4.00001 10 4.9 10 6.00001C10 7.1 9.1 8.00001 8 8.00001C6.9 8.00001 6 7.1 6 6.00001C6 4.9 6.9 4.00001 8 4.00001ZM2 10.6667V15.3333H14V10.6667H2ZM3.33333 14V12H12.6667V14H3.33333Z" fill="#8B8B8B"/>
</svg>
